<svg width="35" height="35" viewBox="0 0 35 35" fill="none" xmlns="http://www.w3.org/2000/svg">
<rect x="0.5" y="0.5" width="34" height="34" rx="3.5" fill="white"/>
<path d="M19.8385 23.9999C19.6891 24.0004 19.5415 23.9698 19.4065 23.9103C19.2715 23.8509 19.1525 23.7641 19.0584 23.6564L14.2275 18.0855C14.0804 17.9194 14 17.711 14 17.4959C14 17.2808 14.0804 17.0725 14.2275 16.9063L19.2284 11.3354C19.3982 11.1458 19.6422 11.0266 19.9066 11.0039C20.1711 10.9813 20.4344 11.0571 20.6387 11.2147C20.8429 11.3723 20.9714 11.5988 20.9958 11.8443C21.0202 12.0898 20.9385 12.3343 20.7687 12.5239L16.2979 17.5005L20.6187 22.4772C20.741 22.6135 20.8187 22.7795 20.8426 22.9555C20.8664 23.1315 20.8355 23.3101 20.7535 23.4703C20.6714 23.6305 20.5416 23.7655 20.3795 23.8594C20.2173 23.9532 20.0296 24.002 19.8385 23.9999Z" fill="#F54749"/>
<rect x="0.5" y="0.5" width="34" height="34" rx="3.5" stroke="#F54749"/>
</svg>
