<svg width="125" height="29" viewBox="0 0 125 29" fill="none" xmlns="http://www.w3.org/2000/svg">
<path d="M6.61036 2.83301C6.61036 4.39764 5.34198 5.66602 3.77735 5.66602C2.21272 5.66602 0.944337 4.39764 0.944337 2.83301C0.944337 1.26838 2.21272 0 3.77735 0C5.34198 0 6.61036 1.26838 6.61036 2.83301Z" fill="white"/>
<path d="M16.9981 2.83301C16.9981 4.39764 15.7297 5.66602 14.1651 5.66602C12.6004 5.66602 11.332 4.39764 11.332 2.83301C11.332 1.26838 12.6004 0 14.1651 0C15.7297 0 16.9981 1.26838 16.9981 2.83301Z" fill="white"/>
<path d="M4.85817 9.21467C6.30419 9.21467 7.40715 9.29213 8.16704 9.44706C8.51379 9.51346 8.79045 9.64626 8.99703 9.84545C9.21098 10.0373 9.31795 10.2586 9.31795 10.5094C9.31795 10.7013 9.2368 10.8968 9.07449 11.096C8.83841 11.3984 8.72036 11.6161 8.72036 11.7489C8.72036 12.0145 8.93063 12.4387 9.35115 13.0215C9.62412 13.3978 9.88234 13.5859 10.1258 13.5859C10.2807 13.5859 10.432 13.5306 10.5795 13.4199C10.7271 13.3019 10.9189 13.0953 11.155 12.8002C11.4427 12.4387 11.5866 12.151 11.5866 11.937C11.5866 11.8042 11.5681 11.7046 11.5312 11.6382C11.5017 11.5718 11.3837 11.4132 11.1771 11.1624C11.0296 10.9927 10.9558 10.764 10.9558 10.4762C10.9558 9.64257 12.0846 9.22573 14.3421 9.22573C15.6185 9.22573 16.4484 9.28475 16.8321 9.40279C17.0755 9.47657 17.2747 9.61675 17.4297 9.82332C17.592 10.0299 17.6731 10.2512 17.6731 10.4873C17.6731 10.7898 17.5809 11.0185 17.3965 11.1734C17.212 11.3284 16.8911 11.4464 16.4337 11.5276C16.0132 11.6087 15.648 11.771 15.3381 12.0145C15.0282 12.2506 14.4602 12.8113 13.6339 13.6966C12.6305 14.7811 12.0034 15.5816 11.7526 16.098C11.5091 16.6071 11.3874 17.3706 11.3874 18.3888C11.3874 19.2446 11.4206 20.0377 11.487 20.768C11.5239 21.2181 11.594 21.5316 11.6972 21.7087C11.8005 21.8784 12.0145 22.0481 12.3391 22.2177C12.8777 22.4981 13.1469 22.8485 13.1469 23.2691C13.1469 24.2724 11.664 24.7741 8.69823 24.7741C7.48092 24.7741 6.33001 24.6561 5.2455 24.42C4.33067 24.2208 3.87326 23.8261 3.87326 23.2359C3.87326 22.7784 4.15361 22.4501 4.71431 22.2509C5.13483 22.1034 5.39674 21.9153 5.50003 21.6866C5.73611 21.1775 5.85415 19.9749 5.85415 18.0789C5.85415 17.4887 5.79513 17.0313 5.67709 16.7067C5.55905 16.3747 5.30083 15.9468 4.90244 15.4229C4.06877 14.3384 3.20927 13.3609 2.32395 12.4903C1.94032 12.1141 1.57144 11.8595 1.21731 11.7267C0.715631 11.5423 0.413148 11.4058 0.309861 11.3173C0.103287 11.1402 0 10.9041 0 10.609C0 10.1147 0.372571 9.76061 1.11771 9.54666C1.86285 9.32533 3.10967 9.21467 4.85817 9.21467Z" fill="white"/>
<path d="M23.3768 14.1614V20.1594C23.3768 21.4431 23.801 22.0849 24.6494 22.0849C24.8634 22.0849 25.0736 22.0259 25.2802 21.9079C25.4868 21.7825 25.6306 21.6312 25.7118 21.4542C25.8741 21.1 25.9553 20.3106 25.9553 19.0859C25.9553 17.876 25.9147 17.0497 25.8335 16.6071C25.804 16.4226 25.7524 16.2898 25.6786 16.2087C25.6048 16.1201 25.4646 16.0205 25.2581 15.9099C24.8375 15.6885 24.6273 15.4082 24.6273 15.0688C24.6273 14.6114 24.9888 14.2942 25.7118 14.1171C27.084 13.7777 28.4378 13.608 29.7732 13.608C30.5183 13.608 30.8909 14.0027 30.8909 14.7922C30.8909 14.8733 30.8872 15.0393 30.8798 15.2901C30.8651 15.6443 30.854 16.0759 30.8466 16.5849V21.4652C30.8466 21.7161 31.0606 21.9448 31.4885 22.1513C31.85 22.3284 32.0307 22.5866 32.0307 22.926C32.0307 23.59 31.245 24.1027 29.6736 24.4642C28.7514 24.6782 27.8587 24.7852 26.9955 24.7852C26.6414 24.7852 26.3979 24.7446 26.2651 24.6634C26.1397 24.5823 26.0659 24.4237 26.0438 24.1876C26.0069 23.7302 25.8667 23.5015 25.6233 23.5015C25.5347 23.5015 25.4536 23.5236 25.3798 23.5679C25.306 23.6047 25.081 23.7523 24.7047 24.0105C23.9596 24.5196 23.1591 24.7741 22.3033 24.7741C20.8868 24.7741 19.8872 24.3646 19.3043 23.5457C18.81 22.8596 18.5629 21.705 18.5629 20.0819C18.5629 19.477 18.5666 18.9605 18.5739 18.5326C18.5739 18.2818 18.5739 18.1121 18.5739 18.0236C18.5739 17.3891 18.5149 16.9243 18.3969 16.6292C18.2862 16.3267 18.0796 16.0906 17.7771 15.9209C17.4894 15.7734 17.305 15.6553 17.2238 15.5668C17.1501 15.4783 17.1132 15.3565 17.1132 15.2016C17.1132 14.6409 17.5374 14.2683 18.3858 14.0839C19.8318 13.7667 21.2778 13.608 22.7239 13.608C23.1591 13.608 23.3768 13.7925 23.3768 14.1614Z" fill="white"/>
<path d="M39.173 13.608C39.5936 13.608 39.8038 13.9068 39.8038 14.5044C39.8038 14.5118 39.8038 14.5745 39.8038 14.6926C39.7964 14.8106 39.7928 14.9065 39.7928 14.9803C39.7928 15.3787 39.9108 15.5779 40.1469 15.5779C40.2723 15.5779 40.4678 15.4193 40.7334 15.102C41.1318 14.6446 41.6335 14.2831 42.2384 14.0175C42.8434 13.7445 43.4631 13.608 44.0976 13.608C45.3297 13.608 46.1855 14.0581 46.665 14.9582C46.8495 15.2901 47.0007 15.4561 47.1187 15.4561C47.1999 15.4561 47.3917 15.3086 47.6942 15.0135C48.6533 14.0765 49.7415 13.608 50.9588 13.608C51.9105 13.608 52.6889 13.87 53.2938 14.3938C53.9283 14.9397 54.2455 15.7586 54.2455 16.8505C54.2455 17.0866 54.2382 17.485 54.2234 18.0457C54.2086 18.2375 54.2013 18.8167 54.2013 19.7831C54.2013 20.4028 54.1976 20.8381 54.1902 21.089C54.1828 21.2439 54.1791 21.3546 54.1791 21.421C54.1791 21.8931 54.3267 22.3063 54.6218 22.6604C54.7989 22.8744 54.9058 23.0182 54.9427 23.092C54.987 23.1584 55.0091 23.2506 55.0091 23.3687C55.0091 24.313 53.8988 24.7852 51.6781 24.7852C50.6969 24.7852 49.9038 24.6671 49.2988 24.431C48.7012 24.195 48.4024 23.8851 48.4024 23.5015C48.4024 23.3539 48.4209 23.2432 48.4578 23.1695C48.502 23.0883 48.6459 22.8817 48.8894 22.5497C49.1181 22.2473 49.2324 21.2402 49.2324 19.5286C49.2324 18.5326 49.1623 17.8391 49.0222 17.4481C48.8599 16.9833 48.5352 16.7509 48.0483 16.7509C47.8049 16.7509 47.5872 16.8284 47.3954 16.9833C47.211 17.1309 47.0892 17.319 47.0302 17.5477C46.9638 17.8133 46.9269 18.5216 46.9195 19.6725C46.9417 20.9119 46.9786 21.6644 47.0302 21.93C47.0892 22.1956 47.2774 22.5645 47.5946 23.0367C47.6684 23.1473 47.7053 23.2875 47.7053 23.4572C47.7053 24.3351 46.558 24.7741 44.2636 24.7741C42.884 24.7741 41.9544 24.6708 41.4749 24.4642C41.0912 24.3019 40.8994 24.0142 40.8994 23.6011C40.8994 23.4166 40.9215 23.2875 40.9658 23.2137C41.0174 23.1399 41.1834 22.9703 41.4638 22.7047C41.6261 22.5497 41.7294 22.4059 41.7736 22.2731C41.8253 22.1329 41.8622 21.8821 41.8843 21.5206C41.936 20.709 41.9618 19.8901 41.9618 19.0638C41.9618 17.6178 41.5929 16.8948 40.8551 16.8948C40.3018 16.8948 39.9735 17.2046 39.8702 17.8244C39.7817 18.4072 39.7374 19.2409 39.7374 20.3254C39.7374 21.1369 39.7522 21.6681 39.7817 21.919C39.8186 22.1698 39.9108 22.4317 40.0583 22.7047C40.2354 23.0219 40.3239 23.2801 40.3239 23.4793C40.3239 23.9589 39.9883 24.2909 39.3169 24.4753C38.5865 24.6745 37.7823 24.7741 36.9044 24.7741C35.7683 24.7741 34.9346 24.6856 34.4034 24.5085C33.8722 24.3241 33.6066 24.0363 33.6066 23.6453C33.6066 23.4978 33.6398 23.3723 33.7062 23.2691C33.78 23.1658 33.9423 23.0035 34.1931 22.7821C34.5251 22.4797 34.7169 22.0628 34.7686 21.5316C34.8497 20.6168 34.8903 19.6688 34.8903 18.6875C34.8903 17.9867 34.8534 17.4997 34.7796 17.2268C34.7132 16.9464 34.5657 16.7214 34.337 16.5517C34.1157 16.382 33.9718 16.2529 33.9054 16.1644C33.8464 16.0759 33.8169 15.9541 33.8169 15.7992C33.8169 15.3049 34.2042 14.9139 34.9788 14.6262C36.8454 13.9548 38.2434 13.6154 39.173 13.608Z" fill="white"/>
<path d="M62.1735 13.608C62.5941 13.608 62.8043 13.9068 62.8043 14.5044C62.8043 14.5118 62.8043 14.5745 62.8043 14.6926C62.797 14.8106 62.7933 14.9065 62.7933 14.9803C62.7933 15.3787 62.9113 15.5779 63.1474 15.5779C63.2728 15.5779 63.4683 15.4193 63.7339 15.102C64.1323 14.6446 64.634 14.2831 65.2389 14.0175C65.8439 13.7445 66.4636 13.608 67.0981 13.608C68.3302 13.608 69.186 14.0581 69.6655 14.9582C69.85 15.2901 70.0012 15.4561 70.1193 15.4561C70.2004 15.4561 70.3922 15.3086 70.6947 15.0135C71.6538 14.0765 72.742 13.608 73.9593 13.608C74.911 13.608 75.6894 13.87 76.2943 14.3938C76.9288 14.9397 77.246 15.7586 77.246 16.8505C77.246 17.0866 77.2387 17.485 77.2239 18.0457C77.2092 18.2375 77.2018 18.8167 77.2018 19.7831C77.2018 20.4028 77.1981 20.8381 77.1907 21.089C77.1833 21.2439 77.1796 21.3546 77.1796 21.421C77.1796 21.8931 77.3272 22.3063 77.6223 22.6604C77.7994 22.8744 77.9063 23.0182 77.9432 23.092C77.9875 23.1584 78.0096 23.2506 78.0096 23.3687C78.0096 24.313 76.8993 24.7852 74.6786 24.7852C73.6974 24.7852 72.9043 24.6671 72.2993 24.431C71.7018 24.195 71.403 23.8851 71.403 23.5015C71.403 23.3539 71.4214 23.2432 71.4583 23.1695C71.5026 23.0883 71.6464 22.8817 71.8899 22.5497C72.1186 22.2473 72.2329 21.2402 72.2329 19.5286C72.2329 18.5326 72.1629 17.8391 72.0227 17.4481C71.8604 16.9833 71.5358 16.7509 71.0488 16.7509C70.8054 16.7509 70.5877 16.8284 70.3959 16.9833C70.2115 17.1309 70.0897 17.319 70.0307 17.5477C69.9643 17.8133 69.9274 18.5216 69.9201 19.6725C69.9422 20.9119 69.9791 21.6644 70.0307 21.93C70.0897 22.1956 70.2779 22.5645 70.5951 23.0367C70.6689 23.1473 70.7058 23.2875 70.7058 23.4572C70.7058 24.3351 69.5586 24.7741 67.2641 24.7741C65.8845 24.7741 64.9549 24.6708 64.4754 24.4642C64.0917 24.3019 63.8999 24.0142 63.8999 23.6011C63.8999 23.4166 63.922 23.2875 63.9663 23.2137C64.0179 23.1399 64.1839 22.9703 64.4643 22.7047C64.6266 22.5497 64.7299 22.4059 64.7742 22.2731C64.8258 22.1329 64.8627 21.8821 64.8848 21.5206C64.9365 20.709 64.9623 19.8901 64.9623 19.0638C64.9623 17.6178 64.5934 16.8948 63.8556 16.8948C63.3023 16.8948 62.974 17.2046 62.8707 17.8244C62.7822 18.4072 62.7379 19.2409 62.7379 20.3254C62.7379 21.1369 62.7527 21.6681 62.7822 21.919C62.8191 22.1698 62.9113 22.4317 63.0589 22.7047C63.2359 23.0219 63.3245 23.2801 63.3245 23.4793C63.3245 23.9589 62.9888 24.2909 62.3174 24.4753C61.587 24.6745 60.7829 24.7741 59.9049 24.7741C58.7688 24.7741 57.9351 24.6856 57.4039 24.5085C56.8727 24.3241 56.6071 24.0363 56.6071 23.6453C56.6071 23.4978 56.6403 23.3723 56.7067 23.2691C56.7805 23.1658 56.9428 23.0035 57.1936 22.7821C57.5256 22.4797 57.7174 22.0628 57.7691 21.5316C57.8502 20.6168 57.8908 19.6688 57.8908 18.6875C57.8908 17.9867 57.8539 17.4997 57.7802 17.2268C57.7138 16.9464 57.5662 16.7214 57.3375 16.5517C57.1162 16.382 56.9723 16.2529 56.9059 16.1644C56.8469 16.0759 56.8174 15.9541 56.8174 15.7992C56.8174 15.3049 57.2047 14.9139 57.9794 14.6262C59.8459 13.9548 61.244 13.6154 62.1735 13.608Z" fill="white"/>
<path d="M90.0876 18.9753L88.6268 22.9924C88.2653 23.9884 87.9001 24.7999 87.5312 25.427C87.1697 26.0615 86.7566 26.6001 86.2918 27.0427C85.3327 27.9575 84.1781 28.415 82.828 28.415C81.7361 28.415 80.8508 28.1272 80.172 27.5518C79.6482 27.1091 79.3863 26.5447 79.3863 25.8586C79.3863 25.2905 79.5671 24.8147 79.9286 24.431C80.2974 24.04 80.7475 23.8445 81.2787 23.8445C81.8099 23.8445 82.2378 24.0216 82.5624 24.3757C82.7173 24.538 82.8206 24.6819 82.8722 24.8073C82.9239 24.9327 83.0013 25.2094 83.1046 25.6373C83.1858 25.9619 83.3702 26.1242 83.658 26.1242C83.8867 26.1242 84.0785 26.0246 84.2334 25.8254C84.3883 25.6262 84.4658 25.3791 84.4658 25.084C84.4658 24.7372 84.274 24.1581 83.8903 23.3465L81.2233 17.6694C80.943 17.0792 80.7327 16.7103 80.5925 16.5628C80.4524 16.4152 80.1425 16.2345 79.663 16.0205C79.5154 15.9615 79.3863 15.8472 79.2756 15.6775C79.1724 15.5004 79.1207 15.3307 79.1207 15.1684C79.1207 14.5118 79.7736 14.0655 81.0795 13.8294C81.95 13.6744 82.9423 13.597 84.0563 13.597C84.8384 13.597 85.4544 13.6781 85.9044 13.8404C86.5094 14.0544 86.8119 14.4196 86.8119 14.936C86.8119 15.1205 86.7271 15.3381 86.5574 15.5889C86.3951 15.825 86.3139 16.0353 86.3139 16.2197C86.3139 16.3968 86.3508 16.5812 86.4246 16.7731C86.5057 16.9649 86.6717 17.2895 86.9226 17.7469C87.2029 18.2633 87.4501 18.5216 87.664 18.5216C87.8927 18.5216 88.1288 18.2965 88.3723 17.8465C88.6157 17.3891 88.7375 16.9501 88.7375 16.5296C88.7375 16.1902 88.6452 15.9136 88.4608 15.6996C88.1804 15.3676 88.0403 15.0836 88.0403 14.8475C88.0403 14.4712 88.2911 14.1724 88.7928 13.9511C89.2945 13.7224 89.9658 13.608 90.8069 13.608C92.3709 13.608 93.153 13.9843 93.153 14.7368C93.153 15.0098 93.0718 15.2311 92.9095 15.4008C92.7546 15.5631 92.4669 15.718 92.0463 15.8656C91.6922 15.9984 91.4118 16.2197 91.2053 16.5296C90.8807 17.0239 90.5081 17.8391 90.0876 18.9753Z" fill="white"/>
<path d="M103.161 9.1372C104.239 9.1372 105.279 9.37328 106.282 9.84545C106.754 10.0668 107.083 10.1774 107.267 10.1774C107.4 10.1774 107.614 10.1442 107.909 10.0778C108.005 10.0557 108.112 10.0446 108.23 10.0446C108.614 10.0446 108.949 10.2217 109.237 10.5758C109.945 11.4316 110.299 12.494 110.299 13.763C110.299 14.6557 109.993 15.3086 109.381 15.7217C109.049 15.9431 108.676 16.0537 108.263 16.0537C107.887 16.0537 107.581 15.9726 107.345 15.8103C107.109 15.648 106.88 15.3602 106.658 14.9471C106.341 14.3643 106.083 13.9474 105.884 13.6966C105.685 13.4384 105.441 13.206 105.153 12.9994C104.438 12.4977 103.689 12.2469 102.907 12.2469C102.147 12.2469 101.542 12.5235 101.092 13.0769C100.649 13.6228 100.428 14.3569 100.428 15.2791C100.428 16.548 100.749 17.71 101.391 18.765C102.261 20.1741 103.508 20.8787 105.131 20.8787C105.729 20.8787 106.319 20.7791 106.902 20.5799C107.492 20.3807 107.95 20.1225 108.274 19.8053C108.555 19.5397 108.783 19.4069 108.96 19.4069C109.219 19.4069 109.44 19.5286 109.624 19.7721C109.809 20.0081 109.901 20.2959 109.901 20.6352C109.901 21.0631 109.772 21.5427 109.514 22.0739C109.255 22.6051 108.946 23.0219 108.584 23.3244C108.429 23.4498 108.108 23.5605 107.621 23.6564C107.341 23.708 106.968 23.8445 106.504 24.0658C105.412 24.5897 104.275 24.8516 103.095 24.8516C101.863 24.8516 100.635 24.5749 99.4099 24.0216C97.9861 23.3797 96.861 22.3948 96.0347 21.0668C95.2231 19.7757 94.8174 18.4256 94.8174 17.0165C94.8174 15.3787 95.3264 13.8847 96.3445 12.5346C97.2298 11.3616 98.3844 10.4652 99.8083 9.84545C100.893 9.37328 102.011 9.1372 103.161 9.1372Z" fill="white"/>
<path d="M119.002 13.5195C120.352 13.5195 121.536 13.87 122.554 14.5708C123.285 15.0725 123.871 15.7254 124.314 16.5296C124.771 17.3706 125 18.2486 125 19.1634C125 20.7644 124.266 22.1255 122.798 23.2469C121.396 24.3167 119.791 24.8516 117.984 24.8516C116.221 24.8516 114.793 24.3499 113.701 23.3465C112.639 22.3727 112.108 21.1037 112.108 19.5397C112.108 17.7985 112.757 16.3747 114.055 15.268C115.413 14.1023 117.062 13.5195 119.002 13.5195ZM118.117 16.0759C117.792 16.0759 117.53 16.1976 117.331 16.4411C117.139 16.6771 117.043 16.9944 117.043 17.3928C117.043 17.8354 117.124 18.4404 117.287 19.2077C117.456 19.9676 117.656 20.6426 117.884 21.2328C118.113 21.8378 118.486 22.1403 119.002 22.1403C119.659 22.1403 119.987 21.7234 119.987 20.8898C119.987 20.2701 119.902 19.5655 119.732 18.7761C119.57 17.9867 119.371 17.3448 119.135 16.8505C118.891 16.3488 118.552 16.0906 118.117 16.0759Z" fill="white"/>
</svg>
