<svg width="153" height="153" viewBox="0 0 153 153" fill="none" xmlns="http://www.w3.org/2000/svg">
<path d="M68.548 45.5085C68.548 50.5233 64.482 54.5885 59.4662 54.5885C54.4505 54.5885 50.3844 50.5233 50.3844 45.5085C50.3844 40.4938 54.4505 36.4286 59.4662 36.4286C64.482 36.4286 68.548 40.4938 68.548 45.5085Z" fill="#F54749"/>
<path d="M101.848 45.5085C101.848 50.5233 97.782 54.5885 92.7663 54.5885C87.7505 54.5885 83.6844 50.5233 83.6844 45.5085C83.6844 40.4938 87.7505 36.4286 92.7663 36.4286C97.782 36.4286 101.848 40.4938 101.848 45.5085Z" fill="#F54749"/>
<path d="M62.931 65.9621C67.5665 65.9621 71.1023 66.2103 73.5383 66.7069C74.6499 66.9197 75.5368 67.3453 76.199 67.9838C76.8849 68.5986 77.2278 69.3079 77.2278 70.1119C77.2278 70.7267 76.9677 71.3533 76.4473 71.9917C75.6905 72.9612 75.3121 73.6587 75.3121 74.0844C75.3121 74.9356 75.9862 76.2952 77.3342 78.1633C78.2093 79.3692 79.0371 79.9721 79.8176 79.9721C80.3142 79.9721 80.799 79.7948 81.2721 79.4401C81.7451 79.0618 82.36 78.3997 83.1168 77.4539C84.0392 76.2952 84.5004 75.3731 84.5004 74.6873C84.5004 74.2617 84.4412 73.9425 84.323 73.7297C84.2284 73.5169 83.85 73.0085 83.1878 72.2045C82.7147 71.6607 82.4782 70.9277 82.4782 70.0055C82.4782 67.3335 86.0968 65.9975 93.3339 65.9975C97.4254 65.9975 100.086 66.1867 101.316 66.565C102.096 66.8015 102.735 67.2508 103.232 67.9128C103.752 68.5749 104.012 69.2843 104.012 70.041C104.012 71.0104 103.716 71.7434 103.125 72.24C102.534 72.7366 101.505 73.1149 100.039 73.375C98.6907 73.6351 97.52 74.1553 96.5267 74.9356C95.5334 75.6923 93.7123 77.4894 91.0634 80.3268C87.8469 83.8028 85.8366 86.3683 85.0325 88.0235C84.252 89.6551 83.8618 92.1024 83.8618 95.3655C83.8618 98.1084 83.9682 100.65 84.1811 102.991C84.2993 104.434 84.524 105.439 84.8551 106.006C85.1862 106.55 85.8721 107.094 86.9127 107.638C88.6392 108.536 89.5025 109.659 89.5025 111.007C89.5025 114.223 84.7487 115.831 75.2412 115.831C71.3388 115.831 67.6493 115.453 64.1727 114.696C61.24 114.057 59.7737 112.792 59.7737 110.901C59.7737 109.435 60.6724 108.382 62.4698 107.744C63.8179 107.271 64.6575 106.668 64.9886 105.935C65.7455 104.304 66.1239 100.449 66.1239 94.3724C66.1239 92.4807 65.9347 91.0147 65.5562 89.9743C65.1778 88.9102 64.3501 87.5388 63.0729 85.8599C60.4004 82.384 57.6451 79.251 54.8071 76.4608C53.5772 75.2548 52.3947 74.4391 51.2595 74.0134C49.6512 73.4223 48.6815 72.9848 48.3504 72.7011C47.6882 72.1336 47.3571 71.3769 47.3571 70.4311C47.3571 68.8468 48.5515 67.7119 50.9402 67.0261C53.3289 66.3168 57.3258 65.9621 62.931 65.9621Z" fill="#F54749"/>
<circle cx="76.5" cy="76.5" r="76" stroke="#F54749"/>
</svg>
