<svg width="29" height="29" viewBox="0 0 29 29" fill="none" xmlns="http://www.w3.org/2000/svg">
<path fill-rule="evenodd" clip-rule="evenodd" d="M14.5 1.20833C7.15935 1.20833 1.20831 7.15937 1.20831 14.5C1.20831 21.8406 7.15935 27.7917 14.5 27.7917C21.8406 27.7917 27.7916 21.8406 27.7916 14.5C27.7916 7.15937 21.8406 1.20833 14.5 1.20833ZM20.2613 12.2525C20.3674 12.1312 20.4482 11.99 20.4989 11.837C20.5495 11.6841 20.5691 11.5226 20.5565 11.3619C20.5438 11.2013 20.4992 11.0448 20.4251 10.9017C20.3511 10.7586 20.2492 10.6318 20.1254 10.5286C20.0017 10.4255 19.8585 10.3481 19.7044 10.3011C19.5503 10.2541 19.3883 10.2384 19.228 10.2549C19.0678 10.2714 18.9124 10.3198 18.7711 10.3973C18.6298 10.4747 18.5055 10.5796 18.4053 10.7058L13.2095 16.9396L10.5209 14.2499C10.293 14.0298 9.98782 13.908 9.67099 13.9107C9.35417 13.9135 9.05111 14.0406 8.82707 14.2646C8.60304 14.4886 8.47596 14.7917 8.47321 15.1085C8.47045 15.4253 8.59225 15.7306 8.81235 15.9585L12.4374 19.5835C12.5561 19.7021 12.6982 19.7947 12.8547 19.8554C13.0112 19.9161 13.1787 19.9435 13.3463 19.9359C13.514 19.9282 13.6783 19.8858 13.8286 19.8112C13.979 19.7365 14.1122 19.6314 14.2196 19.5025L20.2613 12.2525Z" fill="#68D477"/>
</svg>
