<svg width="720" height="360" viewBox="0 0 720 360" fill="none" xmlns="http://www.w3.org/2000/svg">
<g clip-path="url(#clip0_1_940)">
<path d="M720 -60.3359H0V419.664H720V-60.3359Z" fill="#F54749"/>
<path d="M766.685 430.205C865.115 430.205 944.909 350.411 944.909 251.981C944.909 153.55 865.115 73.7567 766.685 73.7567C668.254 73.7567 588.461 153.55 588.461 251.981C588.461 350.411 668.254 430.205 766.685 430.205Z" fill="url(#paint0_linear_1_940)"/>
<path d="M402.317 655.699C500.747 655.699 580.541 575.906 580.541 477.475C580.541 379.045 500.747 299.251 402.317 299.251C303.886 299.251 224.093 379.045 224.093 477.475C224.093 575.906 303.886 655.699 402.317 655.699Z" stroke="#F8F0E4" stroke-miterlimit="10"/>
<path d="M777.926 186.854C876.357 186.854 956.15 107.061 956.15 8.63036C956.15 -89.8 876.357 -169.594 777.926 -169.594C679.496 -169.594 599.702 -89.8 599.702 8.63036C599.702 107.061 679.496 186.854 777.926 186.854Z" stroke="#F8F0E4" stroke-miterlimit="10"/>
<path d="M447.264 118.195C471.801 118.195 491.693 98.3037 491.693 73.7663C491.693 49.229 471.801 29.3375 447.264 29.3375C422.726 29.3375 402.835 49.229 402.835 73.7663C402.835 98.3037 422.726 118.195 447.264 118.195Z" fill="url(#paint1_linear_1_940)"/>
<path d="M162.893 350.016C171.418 350.016 178.329 343.105 178.329 334.579C178.329 326.054 171.418 319.142 162.893 319.142C154.367 319.142 147.456 326.054 147.456 334.579C147.456 343.105 154.367 350.016 162.893 350.016Z" fill="url(#paint2_linear_1_940)"/>
<path d="M511.403 473.806C577.9 473.806 631.806 419.9 631.806 353.403C631.806 286.906 577.9 233 511.403 233C444.906 233 391 286.906 391 353.403C391 419.9 444.906 473.806 511.403 473.806Z" fill="url(#paint3_linear_1_940)"/>
<path d="M0.115112 334.579C98.5455 334.579 178.339 254.785 178.339 156.355C178.339 57.9247 98.5455 -21.8689 0.115112 -21.8689C-98.3153 -21.8689 -178.109 57.9247 -178.109 156.355C-178.109 254.785 -98.3153 334.579 0.115112 334.579Z" fill="url(#paint4_linear_1_940)"/>
<path d="M0.115112 60.0672C66.612 60.0672 120.518 6.16078 120.518 -60.3361C120.518 -126.833 66.612 -180.739 0.115112 -180.739C-66.3817 -180.739 -120.288 -126.833 -120.288 -60.3361C-120.288 6.16078 -66.3817 60.0672 0.115112 60.0672Z" fill="url(#paint5_linear_1_940)"/>
<path d="M110.396 116.351C110.45 101.882 98.7639 90.1095 84.2949 90.0559C69.8259 90.0022 58.053 101.688 57.9994 116.157C57.9458 130.626 69.6318 142.399 84.1007 142.453C98.5697 142.506 110.343 130.82 110.396 116.351Z" stroke="#F8F0E4" stroke-miterlimit="10"/>
<path d="M704.573 -5.20325L676.906 22.4639" stroke="#F8F0E4" stroke-miterlimit="10"/>
<path d="M704.573 22.4639L676.906 -5.20325" stroke="#F8F0E4" stroke-miterlimit="10"/>
<path d="M704.573 32.4L676.906 60.0672" stroke="#F8F0E4" stroke-miterlimit="10"/>
<path d="M704.573 60.0672L676.906 32.4" stroke="#F8F0E4" stroke-miterlimit="10"/>
</g>
<defs>
<linearGradient id="paint0_linear_1_940" x1="766.68" y1="430.2" x2="766.68" y2="73.7613" gradientUnits="userSpaceOnUse">
<stop stop-color="#F54749"/>
<stop offset="1" stop-color="#FCB3B5"/>
</linearGradient>
<linearGradient id="paint1_linear_1_940" x1="447.262" y1="118.194" x2="447.262" y2="29.335" gradientUnits="userSpaceOnUse">
<stop stop-color="#F0B344"/>
<stop offset="1" stop-color="#FBEAC9"/>
</linearGradient>
<linearGradient id="paint2_linear_1_940" x1="162.892" y1="350.016" x2="162.892" y2="319.141" gradientUnits="userSpaceOnUse">
<stop stop-color="#F0B344"/>
<stop offset="1" stop-color="#FBEAC9"/>
</linearGradient>
<linearGradient id="paint3_linear_1_940" x1="511.4" y1="473.803" x2="511.4" y2="233.003" gradientUnits="userSpaceOnUse">
<stop stop-color="#F54749"/>
<stop offset="1" stop-color="#FCB3B5"/>
</linearGradient>
<linearGradient id="paint4_linear_1_940" x1="0.110593" y1="334.575" x2="0.110593" y2="-21.8643" gradientUnits="userSpaceOnUse">
<stop stop-color="#F54749"/>
<stop offset="1" stop-color="#FCB3B5"/>
</linearGradient>
<linearGradient id="paint5_linear_1_940" x1="0.110608" y1="60.0649" x2="0.110608" y2="-180.746" gradientUnits="userSpaceOnUse">
<stop stop-color="#F0B344"/>
<stop offset="1" stop-color="#FBEAC9"/>
</linearGradient>
<clipPath id="clip0_1_940">
<rect width="720" height="360" fill="white"/>
</clipPath>
</defs>
</svg>
