<svg width="35" height="35" viewBox="0 0 35 35" fill="none" xmlns="http://www.w3.org/2000/svg">
<rect width="35" height="35" rx="5" fill="#F54749"/>
<path d="M15.3684 7.08755C15.3684 8.79276 13.9546 10.1751 12.2105 10.1751C10.4665 10.1751 9.05263 8.79276 9.05263 7.08755C9.05263 5.38234 10.4665 4 12.2105 4C13.9546 4 15.3684 5.38234 15.3684 7.08755Z" fill="white"/>
<path d="M28 7.08755C28 8.79276 26.5862 10.1751 24.8421 10.1751C23.098 10.1751 21.6842 8.79276 21.6842 7.08755C21.6842 5.38234 23.098 4 24.8421 4C26.5862 4 28 5.38234 28 7.08755Z" fill="white"/>
<path d="M13.4153 14.0426C15.0271 14.0426 16.2566 14.127 17.1036 14.2959C17.4901 14.3682 17.7985 14.513 18.0288 14.73C18.2673 14.9391 18.3865 15.1803 18.3865 15.4537C18.3865 15.6627 18.2961 15.8758 18.1151 16.0929C17.852 16.4226 17.7204 16.6598 17.7204 16.8045C17.7204 17.094 17.9548 17.5563 18.4235 18.1915C18.7278 18.6015 19.0156 18.8066 19.287 18.8066C19.4597 18.8066 19.6283 18.7463 19.7928 18.6257C19.9572 18.497 20.1711 18.2719 20.4342 17.9503C20.7549 17.5563 20.9153 17.2427 20.9153 17.0095C20.9153 16.8648 20.8947 16.7563 20.8536 16.6839C20.8207 16.6115 20.6891 16.4387 20.4589 16.1653C20.2944 15.9803 20.2122 15.7311 20.2122 15.4175C20.2122 14.5089 21.4704 14.0546 23.9868 14.0546C25.4095 14.0546 26.3347 14.119 26.7623 14.2476C27.0337 14.328 27.2558 14.4808 27.4285 14.7059C27.6094 14.9311 27.6998 15.1723 27.6998 15.4296C27.6998 15.7592 27.597 16.0085 27.3914 16.1773C27.1859 16.3462 26.8281 16.4748 26.3183 16.5633C25.8495 16.6517 25.4424 16.8286 25.097 17.094C24.7516 17.3513 24.1184 17.9623 23.1974 18.9272C22.0789 20.1091 21.3799 20.9815 21.1003 21.5444C20.8289 22.0992 20.6933 22.9314 20.6933 24.0409C20.6933 24.9736 20.7303 25.838 20.8043 26.634C20.8454 27.1245 20.9235 27.4662 21.0387 27.6592C21.1538 27.8441 21.3923 28.029 21.7541 28.214C22.3544 28.5195 22.6546 28.9014 22.6546 29.3597C22.6546 30.4532 21.0016 31 17.6957 31C16.3388 31 15.0559 30.8714 13.847 30.6141C12.8273 30.397 12.3174 29.9668 12.3174 29.3236C12.3174 28.825 12.6299 28.4672 13.2549 28.2501C13.7237 28.0893 14.0156 27.8843 14.1308 27.635C14.3939 27.0803 14.5255 25.7697 14.5255 23.7032C14.5255 23.06 14.4597 22.5615 14.3281 22.2077C14.1965 21.8459 13.9087 21.3795 13.4646 20.8087C12.5354 19.6267 11.5773 18.5613 10.5905 17.6126C10.1628 17.2025 9.75164 16.9251 9.35691 16.7804C8.7977 16.5794 8.46053 16.4306 8.34539 16.3341C8.11513 16.1412 8 15.8839 8 15.5622C8 15.0235 8.4153 14.6376 9.24589 14.4044C10.0765 14.1632 11.4663 14.0426 13.4153 14.0426Z" fill="white"/>
</svg>
