<svg width="16" height="16" viewBox="0 0 16 16" fill="none" xmlns="http://www.w3.org/2000/svg">
<g opacity="0.75">
<path d="M10.1832 8.00081C9.83425 8.00081 9.5059 7.76323 9.3283 7.38312L8.00045 4.56922L6.67466 7.38312C6.495 7.76587 6.16665 8.00345 5.81765 8.00345C5.72472 8.00345 5.63179 7.98761 5.543 7.95329L2.71383 6.91854V11.6172C2.71383 12.0052 2.92034 12.3431 3.21358 12.4355L7.6783 13.8635C7.88894 13.9295 8.1099 13.9295 8.31847 13.8635L12.7873 12.4355C13.0806 12.3404 13.2871 12.0026 13.2871 11.6172V6.91854L10.4579 7.95065C10.3691 7.98497 10.2762 8.00081 10.1832 8.00081ZM14.5736 5.03908L13.5101 2.32549C13.4461 2.16183 13.3077 2.0668 13.1652 2.09056L8.00045 2.93262L9.89414 6.94757C9.97261 7.11387 10.1296 7.19306 10.2762 7.14027L14.363 5.64885C14.5674 5.5723 14.6666 5.28193 14.5736 5.03908ZM2.4908 2.32549L1.42728 5.03908C1.33228 5.28193 1.43347 5.5723 1.63585 5.64621L5.72266 7.13763C5.86928 7.19042 6.02623 7.11123 6.1047 6.94493L8.00045 2.93262L2.8336 2.09056C2.69111 2.06944 2.55481 2.16183 2.4908 2.32549Z" fill="#F54749"/>
</g>
</svg>
