<svg width="23" height="23" viewBox="0 0 23 23" fill="none" xmlns="http://www.w3.org/2000/svg">
<path d="M19.1667 7.66667H16.2917V3.83333H2.875C1.82083 3.83333 0.958334 4.69583 0.958334 5.75V16.2917H2.875C2.875 17.8825 4.15917 19.1667 5.75 19.1667C7.34083 19.1667 8.625 17.8825 8.625 16.2917H14.375C14.375 17.8825 15.6592 19.1667 17.25 19.1667C18.8408 19.1667 20.125 17.8825 20.125 16.2917H22.0417V11.5L19.1667 7.66667ZM5.75 17.7292C4.95458 17.7292 4.3125 17.0871 4.3125 16.2917C4.3125 15.4963 4.95458 14.8542 5.75 14.8542C6.54542 14.8542 7.1875 15.4963 7.1875 16.2917C7.1875 17.0871 6.54542 17.7292 5.75 17.7292ZM18.6875 9.10417L20.5658 11.5H16.2917V9.10417H18.6875ZM17.25 17.7292C16.4546 17.7292 15.8125 17.0871 15.8125 16.2917C15.8125 15.4963 16.4546 14.8542 17.25 14.8542C18.0454 14.8542 18.6875 15.4963 18.6875 16.2917C18.6875 17.0871 18.0454 17.7292 17.25 17.7292Z" fill="white" fill-opacity="0.65"/>
</svg>
