<svg width="26" height="26" viewBox="0 0 26 26" fill="none" xmlns="http://www.w3.org/2000/svg">
<path d="M21.7336 20.2556C22.9004 18.8517 23.712 17.1874 24.0996 15.4035C24.4872 13.6196 24.4394 11.7686 23.9604 10.0071C23.4813 8.24555 22.585 6.62531 21.3473 5.28343C20.1097 3.94154 18.567 2.91749 16.8498 2.2979C15.1327 1.67831 13.2916 1.48142 11.4822 1.72387C9.67288 1.96632 7.94854 2.64098 6.45508 3.69079C4.96163 4.74059 3.74298 6.13466 2.90224 7.75505C2.06151 9.37544 1.62341 11.1745 1.625 13C1.62562 15.6538 2.5608 18.2226 4.26644 20.2556L4.25019 20.2694C4.30707 20.3377 4.37207 20.3962 4.43057 20.4636C4.50369 20.5473 4.5825 20.6261 4.65807 20.7074C4.88557 20.9544 5.11957 21.1916 5.36494 21.4143C5.43969 21.4825 5.51688 21.5459 5.59244 21.6109C5.85244 21.8351 6.11975 22.048 6.39682 22.2463C6.43257 22.2706 6.46507 22.3023 6.50082 22.3275V22.3178C8.40378 23.6569 10.6739 24.3756 13.0008 24.3756C15.3277 24.3756 17.5979 23.6569 19.5008 22.3178V22.3275C19.5366 22.3023 19.5683 22.2706 19.6048 22.2463C19.8811 22.0472 20.1492 21.8351 20.4092 21.6109C20.4848 21.5459 20.5619 21.4817 20.6367 21.4143C20.8821 21.1908 21.1161 20.9544 21.3436 20.7074C21.4191 20.6261 21.4971 20.5473 21.5711 20.4636C21.6288 20.3962 21.6946 20.3377 21.7514 20.2686L21.7336 20.2556ZM13 6.5C13.7231 6.5 14.43 6.71444 15.0313 7.11619C15.6326 7.51794 16.1012 8.08897 16.3779 8.75707C16.6547 9.42516 16.7271 10.1603 16.586 10.8696C16.4449 11.5788 16.0967 12.2303 15.5854 12.7416C15.074 13.2529 14.4225 13.6012 13.7133 13.7422C13.0041 13.8833 12.2689 13.8109 11.6008 13.5342C10.9327 13.2575 10.3617 12.7888 9.95994 12.1876C9.55819 11.5863 9.34375 10.8794 9.34375 10.1563C9.34375 9.18655 9.72897 8.25657 10.4146 7.57089C11.1003 6.88521 12.0303 6.5 13 6.5V6.5ZM6.50569 20.2556C6.51979 19.1888 6.95334 18.1704 7.71255 17.4208C8.47175 16.6711 9.49557 16.2505 10.5625 16.25H15.4375C16.5044 16.2505 17.5283 16.6711 18.2875 17.4208C19.0467 18.1704 19.4802 19.1888 19.4943 20.2556C17.7124 21.8614 15.3987 22.7501 13 22.7501C10.6013 22.7501 8.28763 21.8614 6.50569 20.2556V20.2556Z" fill="#8A8A8A"/>
</svg>
