<svg width="23" height="23" viewBox="0 0 23 23" fill="none" xmlns="http://www.w3.org/2000/svg">
<path d="M17.25 2.875C17.4847 2.87503 17.7113 2.96121 17.8867 3.11719C18.0621 3.27316 18.1742 3.48809 18.2016 3.72121L18.2083 3.83333V19.1667C18.2081 19.4109 18.1145 19.6459 17.9469 19.8235C17.7792 20.0011 17.55 20.108 17.3062 20.1223C17.0623 20.1366 16.8222 20.0573 16.6349 19.9005C16.4476 19.7437 16.3272 19.5213 16.2984 19.2788L16.2917 19.1667V14.375H15.3333C15.0986 14.375 14.8721 14.2888 14.6966 14.1328C14.5212 13.9768 14.4092 13.7619 14.3817 13.5288L14.375 13.4167V7.66667C14.375 5.54875 15.8125 2.875 17.25 2.875ZM11.5 2.875C11.7347 2.87503 11.9613 2.96121 12.1367 3.11719C12.3121 3.27316 12.4242 3.48809 12.4516 3.72121L12.4583 3.83333V8.625C12.4582 9.47492 12.1758 10.3007 11.6554 10.9727C11.135 11.6447 10.4062 12.1248 9.58333 12.3376V19.1667C9.58306 19.4109 9.48953 19.6459 9.32186 19.8235C9.15418 20.0011 8.925 20.108 8.68116 20.1223C8.43732 20.1366 8.19722 20.0573 8.00991 19.9005C7.8226 19.7437 7.70223 19.5213 7.67338 19.2788L7.66667 19.1667V12.3376C6.87648 12.1333 6.17206 11.6823 5.65586 11.0501C5.13966 10.4179 4.8386 9.6375 4.79646 8.82242L4.79167 8.625V3.83333C4.79194 3.58907 4.88547 3.35414 5.05315 3.17652C5.22083 2.99891 5.45 2.89202 5.69384 2.87771C5.93768 2.8634 6.17778 2.94273 6.36509 3.0995C6.5524 3.25628 6.67278 3.47866 6.70163 3.72121L6.70833 3.83333V8.625C6.70834 8.96144 6.79691 9.29194 6.96513 9.58331C7.13335 9.87467 7.3753 10.1166 7.66667 10.2848V3.83333C7.66694 3.58907 7.76047 3.35414 7.92815 3.17652C8.09583 2.99891 8.325 2.89202 8.56884 2.87771C8.81268 2.8634 9.05278 2.94273 9.24009 3.0995C9.4274 3.25628 9.54778 3.47866 9.57663 3.72121L9.58333 3.83333L9.58429 10.2848C9.85173 10.1302 10.0778 9.91331 10.2434 9.65251C10.4089 9.3917 10.5089 9.09476 10.535 8.78696L10.5417 8.625V3.83333C10.5417 3.57917 10.6426 3.33541 10.8224 3.15569C11.0021 2.97597 11.2458 2.875 11.5 2.875V2.875Z" fill="white" fill-opacity="0.65"/>
</svg>
