<svg width="16" height="16" viewBox="0 0 16 16" fill="none" xmlns="http://www.w3.org/2000/svg">
<g opacity="0.75">
<path d="M7.99998 1.33334C4.32398 1.33334 1.33331 4.32401 1.33331 8.00001C1.33331 11.676 4.32398 14.6667 7.99998 14.6667C11.676 14.6667 14.6666 11.676 14.6666 8.00001C14.6666 4.32401 11.676 1.33334 7.99998 1.33334ZM8.66665 11.2767V12H7.33331V11.28C5.77398 11.0353 5.33331 9.94534 5.33331 9.33334H6.66665C6.67398 9.42868 6.77265 10 7.99998 10C8.91998 10 9.33331 9.61001 9.33331 9.33334C9.33331 9.11734 9.33331 8.66668 7.99998 8.66668C5.67998 8.66668 5.33331 7.41334 5.33331 6.66668C5.33331 5.80801 6.01931 4.94401 7.33331 4.72334V4.00801H8.66665V4.74734C9.82265 5.02068 10.2666 5.98268 10.2666 6.66668H9.59998L8.93331 6.67868C8.92398 6.42534 8.78998 6.00001 7.99998 6.00001C7.13398 6.00001 6.66665 6.34401 6.66665 6.66668C6.66665 6.91601 6.66665 7.33334 7.99998 7.33334C10.32 7.33334 10.6666 8.58668 10.6666 9.33334C10.6666 10.192 9.98065 11.056 8.66665 11.2767Z" fill="#F54749"/>
</g>
</svg>
