<svg width="1440" height="320" viewBox="0 0 1440 320" fill="none" xmlns="http://www.w3.org/2000/svg">
<path d="M0 256L48 234.7C96 213 192 171 288 170.7C384 171 480 213 576 245.3C672 277 768 299 864 261.3C960 224 1056 128 1152 101.3C1248 75.0001 1344 117 1392 138.7L1440 160V320H1392C1344 320 1248 320 1152 320C1056 320 960 320 864 320C768 320 672 320 576 320C480 320 384 320 288 320C192 320 96 320 48 320H0V256Z" fill="url(#paint0_linear_43_10)"/>
<defs>
<linearGradient id="paint0_linear_43_10" x1="720" y1="92.9114" x2="720" y2="320" gradientUnits="userSpaceOnUse">
<stop stop-color="#FBACAD"/>
<stop offset="1" stop-color="#F54749"/>
</linearGradient>
</defs>
</svg>
